<?xml version="1.0" standalone="no"?>
<!DOCTYPE svg PUBLIC "-//W3C//DTD SVG 1.1//EN" "http://www.w3.org/Graphics/SVG/1.1/DTD/svg11.dtd" >
<svg xmlns="http://www.w3.org/2000/svg" xmlns:xlink="http://www.w3.org/1999/xlink" version="1.1">
<metadata>
Created by FontForge 20201107 at Tue Nov 23 10:54:51 2021
 By 
Copyright (c) 2021 by Alit Suarnegara. All rights reserved.
</metadata>
<defs>
<font id="NoizeSportFreeVertion-Regular" horiz-adv-x="530" >
  <font-face 
    font-family="Noize Sport Free Vertion"
    font-weight="400"
    font-stretch="normal"
    units-per-em="1000"
    panose-1="0 0 5 0 0 0 0 0 0 0"
    ascent="800"
    descent="-200"
    x-height="500"
    cap-height="700"
    bbox="-180 -225 1246 800"
    underline-thickness="50"
    underline-position="-100"
    unicode-range="U+0020-2212"
  />
<missing-glyph horiz-adv-x="500" 
d="M93 800h317v-1000h-317v1000zM333 700v33h-165v-33h65v-37h-66v-33h166v33h-66v37h66zM267 534v70h-100v-104h166v34h-66zM200 570h33v-36h-33v36zM333 440v33h-166v-33h66v-37h-66v-33h100v70h66zM333 313v100h-33v-66h-133v-34h166zM333 178v113h-100v-56h34v23h33v-47
h-100v80h-33v-113h166zM333 5v113h-166v-113h166zM200 85h100v-47h-100v47zM333 -51v33h-166v-33h70l-70 -47v-33h166v33h-102l70 47h32z" />
    <glyph glyph-name=".notdef" horiz-adv-x="500" 
d="M93 800h317v-1000h-317v1000zM333 700v33h-165v-33h65v-37h-66v-33h166v33h-66v37h66zM267 534v70h-100v-104h166v34h-66zM200 570h33v-36h-33v36zM333 440v33h-166v-33h66v-37h-66v-33h100v70h66zM333 313v100h-33v-66h-133v-34h166zM333 178v113h-100v-56h34v23h33v-47
h-100v80h-33v-113h166zM333 5v113h-166v-113h166zM200 85h100v-47h-100v47zM333 -51v33h-166v-33h70l-70 -47v-33h166v33h-102l70 47h32z" />
    <glyph glyph-name=".null" horiz-adv-x="0" 
 />
    <glyph glyph-name="nonmarkingreturn" horiz-adv-x="333" 
 />
    <glyph glyph-name="space" unicode=" " horiz-adv-x="300" 
 />
    <glyph glyph-name="exclam" unicode="!" horiz-adv-x="359" 
d="M204 250h-135l67 450h203zM169 109l-24 -109h-125l25 109h124z" />
    <glyph glyph-name="quotedbl" unicode="&#x22;" horiz-adv-x="478" 
d="M20 436l60 264h131l-60 -264h-131zM267 436l60 264h131l-60 -264h-131z" />
    <glyph glyph-name="numbersign" unicode="#" horiz-adv-x="826" 
d="M770 700l-41 -185h77l-22 -116h-81l-17 -74h-203l17 74h-147l-17 -74h-203l17 74h-76l28 116h74l41 185h203l-41 -185h147l41 185h203zM752 288l-22 -116h-77l-38 -172h-205l38 172h-145l-38 -172h-205l38 172h-78l28 116h704z" />
    <glyph glyph-name="dollar" unicode="$" horiz-adv-x="867" 
d="M785 701q30 0 46 -8t16 -32q0 -8 -3 -20l-1 -5l-26 -114q-7 -33 -22.5 -51t-51.5 -18h-120l20 91l-309 -1l-29 -126l-29 -131h-133q-29 0 -46 9t-17 32q0 9 3 19l17 71l50 213q8 34 24.5 52t53.5 18h211l12 51h122l-12 -50h224zM726 418q30 0 47.5 -8.5t17.5 -31.5
q0 -9 -3 -20l-18 -71l-53 -217q-8 -34 -24.5 -52t-53.5 -18h-235l-16 -69h-123l16 68h-199q-30 0 -46 8t-16 32q0 8 3 20l1 5l26 114q7 33 22.5 51t51.5 18h120l-13 -53l-8 -38l312 1l30 130l-244 -1l28 131z" />
    <glyph glyph-name="percent" unicode="%" horiz-adv-x="762" 
d="M20 0l514 700h208l-512 -700h-210zM278 691q22 0 29 -11.5t5 -36.5l-7 -112q-2 -24 -15 -33t-34 -9h-119q-38 0 -34 42l8 118q1 20 12 31t28 11h127zM638 226q22 0 29.5 -11.5t5.5 -36.5l-8 -112q-1 -24 -14.5 -33t-34.5 -9h-119q-37 0 -34 42l8 118q1 20 12 31t28 11
h127z" />
    <glyph glyph-name="ampersand" unicode="&#x26;" horiz-adv-x="932" 
d="M852 365q40 28 60 41l-39 -203q-62 -64 -175 -118l88 -41l-41 -165l-259 121l3 14q-70 -14 -135 -14h-285q-49 0 -49 43q0 17 4 32l39 167q15 62 47.5 85t83.5 23q14 0 42 -2q-39 4 -55 19.5t-16 44.5q0 26 14 85l9 42l20 96q6 32 24.5 48.5t54.5 16.5h25v1l413 -1
q51 0 51 -40q0 -12 -5 -30l-39 -164q-15 -65 -24.5 -89.5t-27.5 -34.5t-57 -13q31 -1 55.5 -14t37.5 -40q53 32 136 90zM444 407l76 1l26 117l-159 1l-25 -118zM250 169l149 1q63 0 125 18l17 86l-132 1l-134 -1z" />
    <glyph glyph-name="quotesingle" unicode="'" horiz-adv-x="231" 
d="M20 436l60 264h131l-60 -264h-131z" />
    <glyph glyph-name="parenleft" unicode="(" horiz-adv-x="447" 
d="M264 700q-75 -64 -130 -156.5t-84.5 -198.5t-29.5 -209q0 -76 17 -145.5t51 -125.5h155q-71 123 -71 281q0 154 67.5 302.5t187.5 251.5h-163z" />
    <glyph glyph-name="parenright" unicode=")" horiz-adv-x="403" 
d="M128 700q51 -62 77 -144t26 -174q0 -134 -54 -270t-157 -247h155q99 104 153.5 247.5t54.5 284.5q0 91 -23 169t-69 134h-163z" />
    <glyph glyph-name="asterisk" unicode="*" horiz-adv-x="319" 
d="M243 695l56 -67l-72 -60l72 -60l-56 -67l-40 34v-52h-87v52l-40 -34l-56 67l72 60l-72 60l56 67l40 -34v52h87v-52z" />
    <glyph glyph-name="plus" unicode="+" horiz-adv-x="538" 
d="M398 534l-34 -152l154 1l-29 -144l-469 -4l38 145l149 1l34 153h157zM295 70h-158l29 128h157z" />
    <glyph glyph-name="comma" unicode="," horiz-adv-x="217" 
d="M197 109l-110 -235h-67l53 235h124z" />
    <glyph glyph-name="period" unicode="." horiz-adv-x="189" 
d="M169 109l-24 -109h-125l25 109h124z" />
    <glyph glyph-name="slash" unicode="/" 
d="M20 -168l304 868h186l-303 -868h-187z" />
    <glyph glyph-name="zero" unicode="0" horiz-adv-x="870" 
d="M788 701q30 0 46 -8t16 -32q0 -8 -3 -20l-22 -97l-80 -346h-203l79 346l-284 -1l-87 -387l487 1l-20 -87q-8 -34 -24.5 -52t-53.5 -18l-557 -1q-30 0 -46 8t-16 32q0 8 3 20l22 97l88 387l20 87q8 34 24.5 52t53.5 18z" />
    <glyph glyph-name="one" unicode="1" horiz-adv-x="448" 
d="M225 699v1h203l-155 -700h-205l113 502h-141l16 72z" />
    <glyph glyph-name="two" unicode="2" horiz-adv-x="884" 
d="M853 690.5q11 -9.5 11 -28.5q0 -7 -4 -29l-60 -268l-20 -75q-9 -35 -31 -47.5t-56 -12.5l-422 1l-45 -231h-206l46 231l17 75q8 35 31.5 47.5t59.5 12.5l421 -1l37 158l-310 1l-16 -68h-120q-28 0 -38.5 7t-10.5 23q0 6 4 26l3 12h-1l41 176h630q28 0 39 -9.5zM709 -1
l-438 1l34 170l444 -1z" />
    <glyph glyph-name="three" unicode="3" horiz-adv-x="880" 
d="M810 703q28 0 39 -10.5t11 -29.5q0 -8 -4 -30l-39 -167q-13 -55 -37.5 -81.5t-52 -33.5t-68.5 -9q-15 0 -22 -1q46 -2 80 -34t34 -92q0 -25 -5 -46l-20 -99q-14 -70 -80 -70h-136l34 169l28 118l-213 1l36 132l210 1l24 104l-306 1l-16 -70h-120q-48 0 -48 38q0 13 5 31
v1l42 178zM259 247l-20 -78l262 1l-34 -170h-447l14 64l23 105q7 33 26.5 55.5t55.5 22.5h120z" />
    <glyph glyph-name="four" unicode="4" horiz-adv-x="832" 
d="M128 621q8 36 18.5 52t28.5 21.5t55 5.5h119l-96 -433l220 3l-28 -124l-425 -6zM657 0h-205l157 700h203z" />
    <glyph glyph-name="five" unicode="5" horiz-adv-x="862" 
d="M151 700h691l-34 -166l-490 -1l-48 -195l-202 -1l30 135zM725 473q30 0 46.5 -9.5t16.5 -34.5q0 -4 -2 -16l-13 -75l-36 -168h1l-22 -100q-7 -34 -23.5 -52t-53.5 -18l-557 -1q-30 0 -46 8.5t-16 32.5q0 12 2 19l1 5l3 13l19 92l5 22q7 31 20.5 43.5t49.5 12.5h120
l-16 -78l309 1l35 168h-259l32 135h384z" />
    <glyph glyph-name="six" unicode="6" horiz-adv-x="827" 
d="M756 543h-616l20 87q8 34 24.5 52t53.5 18h492q27 0 38 -10t11 -29q0 -16 -4 -31zM754 475q24 1 38.5 -13.5t14.5 -35.5q0 -4 -2 -14l-22 -95l-4 -18l-32 -142l-25 -103q-7 -26 -24 -40t-43 -14h-635l114 509h205l-80 -352h285l31 143h-244l26 115q8 35 30 48t56 12h311z
" />
    <glyph glyph-name="seven" unicode="7" horiz-adv-x="722" 
d="M20 502l114 198h314l-115 -198h-313zM302 0h-217l402 700h215z" />
    <glyph glyph-name="eight" unicode="8" horiz-adv-x="857" 
d="M786 700q51 0 51 -40q0 -12 -5 -30l-39 -164q-15 -65 -24.5 -89.5t-27.5 -34.5t-57 -13q29 -1 41.5 -14t12.5 -42q0 -30 -16 -104l-20 -99q-14 -70 -80 -70h-136l34 169l21 105l-132 1l-134 -1l-25 -105l233 1l-34 -170h-380q-49 0 -49 43q0 17 4 32l39 167
q11 47 20.5 69t23 30.5t38.5 8.5q9 0 37 -2q-39 4 -55 19.5t-16 44.5q0 26 14 85l9 42l20 96q6 32 24.5 48.5t54.5 16.5h25v1zM308 408l137 -1l136 1l26 117l-274 1z" />
    <glyph glyph-name="nine" unicode="9" horiz-adv-x="827" 
d="M73 225q-24 -1 -38.5 13.5t-14.5 35.5q0 4 2 14l22 95l4 18l32 142l25 103q7 26 24 40t43 14h390l-35 -157h-244l-31 -143h244l-26 -115q-8 -35 -30 -48t-56 -12h-311zM604 700h203l-120 -543l-20 -87q-8 -34 -24.5 -52t-53.5 -18h-492q-27 0 -38 10t-11 29q0 16 4 31
l19 87l410 -1z" />
    <glyph glyph-name="colon" unicode=":" horiz-adv-x="275" 
d="M255 500l-24 -109h-125l25 109h124zM169 109l-24 -109h-125l25 109h124z" />
    <glyph glyph-name="semicolon" unicode=";" horiz-adv-x="304" 
d="M284 500l-24 -109h-125l25 109h124zM197 109l-110 -235h-67l53 235h124z" />
    <glyph glyph-name="equal" unicode="=" horiz-adv-x="597" 
d="M117 472l460 3l-29 -144l-469 -4zM58 220l460 3l-29 -144l-469 -4z" />
    <glyph glyph-name="question" unicode="?" horiz-adv-x="799" 
d="M265 524l-16 -68h-120q-28 0 -38.5 7t-10.5 23q0 6 4 26l3 12h-1l41 176h412l-40 -177zM729 700q28 0 39 -9.5t11 -28.5q0 -7 -4 -29l-60 -268l-20 -75q-9 -35 -31 -47.5t-56 -12.5h-200l-45 -84h-150l21 160q5 36 24 48t53 12l199 -1l78 335h141zM322 0h-125l25 109h124
z" />
    <glyph glyph-name="at" unicode="@" horiz-adv-x="591" 
d="M87 427.5q48 62.5 114.5 93t137.5 30.5q72 0 129.5 -30.5t83.5 -86.5q19 -42 19 -89q0 -45 -16.5 -85.5t-45.5 -67t-65 -31.5q-18 -2 -25 -2q-25 0 -42.5 8t-19.5 19q-29 -32 -57 -46.5t-63 -14.5q-45 0 -68 27t-23 70q0 40 19.5 83.5t55 76t81.5 42.5q13 3 26 3
q28 0 48 -13.5t30 -37.5l10 16l61 -33q-3 -5 -28.5 -44.5t-25.5 -61.5q0 -7 4 -9.5t13 -1.5q26 4 41.5 32.5t15.5 64.5q0 35 -16 66q-18 33 -55.5 51.5t-83.5 18.5q-52 0 -102.5 -24t-87 -73.5t-47.5 -121.5q-2 -18 -2 -26q0 -62 42.5 -98.5t107.5 -36.5q70 0 138 42l37 -68
q-93 -46 -181 -46q-65 0 -116.5 25.5t-81 72.5t-29.5 109q0 24 4 44q15 91 63 153.5zM292 222.5q22 15.5 54 59.5q15 26 15 44q0 14 -9 20.5t-21 6.5q-28 0 -52 -19.5t-38.5 -48t-14.5 -50.5q0 -13 5.5 -20.5t17.5 -7.5q21 0 43 15.5z" />
    <glyph glyph-name="A" unicode="A" horiz-adv-x="891" 
d="M434 558q-68 0 -103 -33t-49 -91l-97 -434h-205l99 434q61 270 342 266h208l-32 -142h-163zM668 700h203l-155 -700h-205l56 251h-282l24 116q7 35 26 48t49 12l223 -1z" />
    <glyph glyph-name="B" unicode="B" horiz-adv-x="889" 
d="M680 408q50 0 75 -3t37 -13.5t12 -32.5q0 -16 -8 -50l-58 -249q-8 -35 -30 -48t-56 -12l-425 1l26 115q8 35 30 48t56 12h244l21 86l-317 1l20 85q8 36 30 48.5t56 11.5h182l31 130l-302 -2l-119 -536h-205l157 700h626q24 0 35 -10t11 -35q0 -22 -7 -53
q-13 -58 -47 -101.5t-76.5 -67t-77.5 -25.5h21h58z" />
    <glyph glyph-name="C" unicode="C" horiz-adv-x="841" 
d="M759 701q30 0 46 -8t16 -32q0 -8 -3 -20l-22 -97l-488 -1l-74 -326h-204l75 326l19 87q8 34 24.5 52t53.5 18zM6 116q8 35 30 48t56 12h624l-27 -116q-8 -35 -30 -48t-56 -12l-623 1z" />
    <glyph glyph-name="D" unicode="D" horiz-adv-x="841" 
d="M759 701q30 0 46 -8t16 -32q0 -8 -3 -20l-22 -97l-84 -368l-27 -116q-8 -35 -30 -48t-56 -12l-368 1l26 115q8 35 30 48t56 12h166l83 368l-252 -1l35 157zM-20 0l157 700h203l-155 -700h-205z" />
    <glyph glyph-name="E" unicode="E" horiz-adv-x="795" 
d="M775 700l-41 -178h-434l-68 -307h-205l110 485h638zM703 426l-22 -115q-8 -35 -27 -48t-49 -12h-322l24 116q7 35 26 48t49 12zM6 116q8 35 30 48t56 12h569l-27 -116q-8 -35 -30 -48t-56 -12l-568 1z" />
    <glyph glyph-name="F" unicode="F" horiz-adv-x="794" 
d="M774 700l-41 -178h-432l-116 -522h-205l157 700h637zM706 426l-27 -115q-8 -35 -27.5 -48t-49.5 -12h-322l27 116q9 35 28.5 48t49.5 12z" />
    <glyph glyph-name="G" unicode="G" horiz-adv-x="884" 
d="M848 693q16 -8 16 -32q0 -8 -3 -20l-22 -97l-534 -1l-120 -543h-205l157 700l665 1q30 0 46 -8zM680 408q50 0 75 -3t37 -13.5t12 -32.5q0 -16 -8 -50l-58 -249q-8 -35 -30 -48t-56 -12l-425 1l26 115q8 35 30 48t56 12h244l21 86l-188 1l20 85q8 36 30 48.5t56 11.5h100
h58z" />
    <glyph glyph-name="H" unicode="H" horiz-adv-x="901" 
d="M-20 0l157 700h203l-155 -700h-205zM678 700h203l-155 -700h-205l56 251h-290l27 116q8 35 30 48t56 12l217 -1z" />
    <glyph glyph-name="I" unicode="I" horiz-adv-x="360" 
d="M185 0h-205l157 700h203z" />
    <glyph glyph-name="J" unicode="J" horiz-adv-x="781" 
d="M440 191l118 509h203l-116 -509h-205zM198 156l441 1l-20 -87q-8 -34 -25 -53t-53 -19l-287 2l-205 -2q-49 -1 -49 40q0 10 4 30h-1l19 87l1 2l36 160q7 34 24 52.5t52 18.5l116 -1z" />
    <glyph glyph-name="K" unicode="K" horiz-adv-x="839" 
d="M185 0h-205l157 700h203zM320 447q49 -5 153 -5q45 0 70.5 23t36.5 70l37 165h202l-43 -200q-19 -90 -64.5 -126.5t-112.5 -35.5q106 -2 106 -115q0 -35 -10 -78l-32 -145h-203l41 178q3 14 3 25q0 24 -18 37t-62 16l-145 8z" />
    <glyph glyph-name="L" unicode="L" horiz-adv-x="832" 
d="M185 0h-205l157 700h203zM257 116q8 35 30 48t56 12h369l-27 -116q-8 -35 -30 -48t-56 -12l-368 1z" />
    <glyph glyph-name="M" unicode="M" horiz-adv-x="1144" 
d="M-20 0l157 700h203l-155 -700h-205zM921 700h203l-155 -700h-205l67 298l-216 -298h-122q-37 0 -55 15t-25 46l-93 358l61 281q26 0 44 -18t25 -42l110 -428z" />
    <glyph glyph-name="N" unicode="N" horiz-adv-x="835" 
d="M-20 0l157 700h203l-155 -700h-205zM815 700l-158 -698l1 -2h-122q-37 0 -56 15t-30 46l-131 358l59 275q18 -6 29 -19t19 -35l106 -292l78 352h205z" />
    <glyph glyph-name="O" unicode="O" horiz-adv-x="841" 
d="M759 701q30 0 46 -8t16 -32q0 -8 -3 -20l-22 -97l-84 -368l-27 -116q-8 -35 -30 -48t-56 -12l-368 1l26 115q8 35 30 48t56 12h166l83 368l-284 -1l-123 -543h-205l124 543l20 87q8 34 24.5 52t53.5 18z" />
    <glyph glyph-name="P" unicode="P" horiz-adv-x="890" 
d="M747 700q50 0 75 -3t37 -13.5t12 -32.5q0 -16 -8 -50l-40 -174l-27 -116q-8 -35 -30 -48t-56 -12l-425 1l26 115q8 35 30 48t56 12h244l30 127l-363 1l-123 -555h-205l157 700h552h58z" />
    <glyph glyph-name="Q" unicode="Q" horiz-adv-x="841" 
d="M759 701q30 0 46 -8t16 -32q0 -8 -3 -20l-22 -97l-84 -368l-27 -116q-8 -35 -30 -48t-56 -12l-130 1l40 175l83 368l-284 -1l-123 -543h-205l124 543l20 87q8 34 24.5 52t53.5 18zM423 297q44 -19 44 -62q0 -14 -5 -34l-72 -308l-11 -54l-107 46q-44 19 -44 61q0 14 5 34
l83 363z" />
    <glyph glyph-name="R" unicode="R" horiz-adv-x="890" 
d="M747 700q50 0 75 -3t37 -13.5t12 -32.5q0 -16 -8 -50l-40 -174l-27 -116q-8 -35 -30 -48t-56 -12l-425 1l26 115q8 35 30 48t56 12h244l30 127l-363 1l-123 -555h-205l157 700h552h58zM454 221h209l38 -221h-151q-35 0 -50 19t-20 54z" />
    <glyph glyph-name="S" unicode="S" horiz-adv-x="827" 
d="M745 701q30 0 46 -8t16 -32q0 -8 -3 -20l-1 -5l-26 -114q-7 -33 -22.5 -51t-51.5 -18h-120l13 53l8 38l-310 -1l-29 -126l421 1q30 0 47.5 -8.5t17.5 -31.5q0 -9 -3 -20l-18 -71l-494 -1h-133q-29 0 -46 9t-17 32q0 9 3 19l17 71l50 213q8 34 24.5 52t53.5 18zM494 157
l22 95h205l-44 -182q-8 -34 -24.5 -52t-53.5 -18l-557 -1q-30 0 -46 8t-16 32q0 8 3 20l1 5l26 114q7 33 22.5 51t51.5 18h120l-13 -53l-8 -38z" />
    <glyph glyph-name="T" unicode="T" horiz-adv-x="860" 
d="M100 537l35 163h705l-23 -104q-8 -35 -30 -48t-56 -12zM446 0h-205l111 500h203z" />
    <glyph glyph-name="U" unicode="U" horiz-adv-x="843" 
d="M619 700h204l-126 -543l-20 -87q-8 -34 -24.5 -52t-53.5 -18l-557 -1q-30 0 -46 8t-16 32q0 8 3 20l22 97l488 1zM129 700h203l-116 -508h-204z" />
    <glyph glyph-name="V" unicode="V" horiz-adv-x="803" 
d="M570 643q17 29 39 43t60 14h124l-364 -643q-13 -24 -37 -41t-50 -16l10 258zM100 -1l27 700h205l-29 -700h-203z" />
    <glyph glyph-name="W" unicode="W" horiz-adv-x="1144" 
d="M784 280l-61 -281q-26 0 -44 18t-25 42l-110 428l-361 -488h-203l155 700h205l-67 -298l216 298h122q37 0 55 -15t25 -46zM764 -1l155 700h205l-157 -700h-203z" />
    <glyph glyph-name="X" unicode="X" horiz-adv-x="839" 
d="M182 0h-202l47 222q6 30 32.5 63t64.5 55t77 22q12 0 18 -1q-35 8 -62.5 34t-42.5 61t-15 69q0 14 3 27l34 148h203zM320 447q49 -5 153 -5q45 0 70.5 23t36.5 70l37 165h202l-43 -200q-19 -90 -64.5 -126.5t-112.5 -35.5q106 -2 106 -115q0 -35 -10 -78l-32 -145h-203
l41 178q3 14 3 25q0 24 -18 37t-62 16l-145 8z" />
    <glyph glyph-name="Y" unicode="Y" horiz-adv-x="879" 
d="M325 700l-112 -480q-74 10 -108.5 65.5t-34.5 135.5q0 45 12 102l40 177h203zM657 700h202l-43 -200q-62 -285 -367 -306l-43 -194h-203l69 309l16 71q44 -10 91 -10q85 0 153 37t88 128z" />
    <glyph glyph-name="Z" unicode="Z" horiz-adv-x="854" 
d="M514 700l-138 -176h-299l31 116q10 35 32 48t56 12h318zM255 0h-245l551 700h243zM304 0l138 176h299l-31 -116q-10 -35 -32 -48t-56 -12h-318z" />
    <glyph glyph-name="bracketleft" unicode="[" 
d="M510 700l-32 -157h-142l-116 -524h138l-32 -157h-306l188 838h302z" />
    <glyph glyph-name="bracketright" unicode="]" 
d="M510 700l-188 -838h-302l32 157h142l116 524h-138l32 157h306z" />
    <glyph glyph-name="underscore" unicode="_" horiz-adv-x="490" 
d="M20 -133l30 140h420l-31 -140h-419z" />
    <glyph glyph-name="a" unicode="a" horiz-adv-x="883" 
d="M844 531.5q19 -14.5 19 -41.5q0 -14 -6 -42l-5 -21l-94 -427h-656q-29 -1 -45.5 8.5t-16.5 33.5q0 4 2 18l40 200q10 49 21.5 68.5t35.5 25t82 5.5h62h228q32 0 47 -8t15 -31q0 -9 -3 -21l-17 -77l-297 1l-20 -98l345 -1l16 72h-1l49 213h-514l20 77q9 35 30.5 48
t55.5 12h540q48 0 67 -14.5z" />
    <glyph glyph-name="b" unicode="b" horiz-adv-x="901" 
d="M748 500q50 0 75 -3t36.5 -13.5t11.5 -33.5q0 -21 -7 -49l-51 -225l-27 -116q-8 -35 -30 -48t-56 -12h-425l26 115q8 35 30 48t56 12l244 1l37 158l-369 1l-74 -335h-205l157 700h203l-44 -200h354h58z" />
    <glyph glyph-name="c" unicode="c" horiz-adv-x="835" 
d="M815 500l-37 -175l-496 -1l-76 -324h-57q-46 0 -67.5 2.5t-31.5 11.5t-10 28q0 20 9 57l51 225l27 116q8 35 30 48t56 12h602zM253 0l40 175l451 1l-27 -116q-8 -35 -30 -48t-56 -12h-378z" />
    <glyph glyph-name="d" unicode="d" horiz-adv-x="955" 
d="M732 700h203l-155 -700h-559h-58q-50 0 -75 3t-36.5 13.5t-11.5 33.5q0 21 7 49l51 225l27 116q8 35 30 48t56 12h425l-26 -115q-8 -35 -30 -48t-56 -12l-244 -1l-33 -143l368 -1z" />
    <glyph glyph-name="e" unicode="e" horiz-adv-x="826" 
d="M744 500q30 0 46 -8t16 -32q0 -8 -3 -20l-20 -88l-25 -111q-8 -35 -30 -48t-56 -12l-352 -1l13 51q9 35 30.5 48t55.5 12h178l14 61l-323 -1l-52 -222l497 1l-16 -70q-8 -35 -30 -48t-56 -12h-425h-57q-46 0 -67.5 2.5t-31.5 11.5t-10 28q0 20 9 57l57 252l21 89
q8 35 29.5 47.5t56.5 12.5h531z" />
    <glyph glyph-name="f" unicode="f" horiz-adv-x="819" 
d="M799 700l-27 -126q-8 -38 -33 -53t-71 -15h-331l-112 -506h-205l139 622q11 46 29 62t57 16h554zM746 426l-27 -115q-8 -35 -27.5 -48t-49.5 -12h-322l27 116q9 35 28.5 48t49.5 12z" />
    <glyph glyph-name="g" unicode="g" horiz-adv-x="843" 
d="M823 500l-120 -534h-205l86 377h-285l-37 -168h244l-26 -115q-8 -35 -30 -48t-56 -12h-311q-24 -1 -38.5 13.5t-14.5 35.5q0 4 2 14l22 95l4 18l38 167l25 103q7 26 24 40t43 14h635zM81 -68h616l-20 -87q-8 -34 -24.5 -52t-53.5 -18h-492q-27 0 -38 10t-11 29q0 16 4 31
z" />
    <glyph glyph-name="h" unicode="h" horiz-adv-x="837" 
d="M20 0l157 700h203l-155 -700h-205zM755 500q30 0 46 -8t16 -32q0 -8 -3 -20l-22 -97l-41 -167l-27 -116q-8 -35 -30 -48t-56 -12l-130 1l40 175l40 167h-242l36 157h373z" />
    <glyph glyph-name="i" unicode="i" horiz-adv-x="405" 
d="M385 700l-37 -162h-204l38 162h203zM339 500l-115 -500h-204l116 500h203z" />
    <glyph glyph-name="j" unicode="j" horiz-adv-x="383" 
d="M363 700l-37 -162h-204l38 162h203zM-145 0q58 0 85 5.5t51.5 37.5t41.5 108l81 349h203l-106 -465q-16 -70 -60 -112t-124 -61t-207 -18z" />
    <glyph glyph-name="k" unicode="k" horiz-adv-x="836" 
d="M225 0h-205l157 700h203zM298 168l41 178h153q45 0 70 23t37 70l15 61h202l-21 -96q-20 -89 -65 -126t-112 -36q106 -2 106 -115q0 -35 -10 -78l-11 -49h-203l20 82q4 18 4 26q0 55 -81 60h-145z" />
    <glyph glyph-name="l" unicode="l" horiz-adv-x="388" 
d="M224 0h-204l156 700h131q29 0 45 -8.5t16 -32.5q0 -12 -2 -19z" />
    <glyph glyph-name="m" unicode="m" horiz-adv-x="1266" 
d="M1230 492q16 -8 16 -32q0 -8 -3 -20l-22 -97l-41 -167l-27 -116q-8 -35 -30 -48t-56 -12l-130 1l40 175l40 167h-714l-78 -343h-205l100 430q8 34 24.5 52t53.5 18h986q30 0 46 -8zM479 1l69 299h203l-56 -240q-8 -35 -30 -48t-56 -12z" />
    <glyph glyph-name="n" unicode="n" horiz-adv-x="838" 
d="M802 492q16 -8 16 -32q0 -8 -3 -20l-22 -97l-41 -167l-27 -116q-8 -35 -30 -48t-56 -12l-130 1l40 175l40 167h-286l-78 -343h-205l100 430q8 34 24.5 52t53.5 18h558q30 0 46 -8z" />
    <glyph glyph-name="o" unicode="o" horiz-adv-x="835" 
d="M799 492q16 -8 16 -32q0 -8 -3 -20l-22 -97l-38 -167l-27 -116q-8 -35 -30 -48t-56 -12l-368 1l26 115q8 35 30 48t56 12h166l37 167h-284l-77 -343h-205l78 343l20 87q8 34 24.5 52t53.5 18h557q30 0 46 -8z" />
    <glyph glyph-name="p" unicode="p" horiz-adv-x="937" 
d="M794 500q50 0 75 -3t36.5 -13.5t11.5 -33.5q0 -21 -7 -49l-51 -225l-27 -116q-8 -35 -30 -48t-56 -12h-425l26 115q8 35 30 48t56 12l244 1l41 178l-370 1l-123 -555h-205l157 700h559h58z" />
    <glyph glyph-name="q" unicode="q" horiz-adv-x="886" 
d="M711 -200h-205l124 555l-366 -1l-37 -178l244 -1q30 1 46 -8t16 -33q0 -12 -2 -19l-24 -115h-425q-30 -1 -46 8t-16 33q0 12 2 19l24 116l47 225q10 47 24.5 67.5t43 26t91.5 5.5h58h556z" />
    <glyph glyph-name="r" unicode="r" horiz-adv-x="672" 
d="M111 401q13 55 47 77t100 22h332q30 0 46 -8.5t16 -32.5q0 -12 -2 -19l-24 -113l-186 -2h-60q-33 0 -50.5 -4t-28 -16.5t-16.5 -40.5l-60 -264h-205z" />
    <glyph glyph-name="s" unicode="s" horiz-adv-x="816" 
d="M735 500q30 0 45.5 -8.5t15.5 -31.5q0 -13 -2 -20l-14 -66l-489 -1l-16 -72l-22 -108h-133q-30 0 -46 9.5t-16 33.5q0 5 2 17l10 48l30 128q7 33 24 51.5t54 18.5zM696 302q30 0 47 -9t17 -32q0 -12 -2 -19l-11 -48l-31 -124q-8 -34 -24.5 -52t-53.5 -18h-557
q-30 0 -45.5 8.5t-15.5 31.5q0 13 2 20l14 63h490l16 71l-249 -1l21 108z" />
    <glyph glyph-name="t" unicode="t" horiz-adv-x="756" 
d="M630 0h-471q-69 0 -99 26t-30 76q0 26 10 68l119 530h203l-113 -513h422zM324 302l45 198h265l62 -198h-372z" />
    <glyph glyph-name="u" unicode="u" horiz-adv-x="838" 
d="M613 500h205l-100 -430q-8 -34 -24.5 -52t-53.5 -18h-558q-30 0 -46 8t-16 32q0 8 3 20l22 97l68 283q8 35 29.5 47.5t56.5 12.5l130 -1l-80 -342h286z" />
    <glyph glyph-name="v" unicode="v" horiz-adv-x="756" 
d="M311 0h-205l-36 500h203zM508 443q19 29 42.5 43t61.5 14h124l-290 -443q-15 -23 -42.5 -40.5t-53.5 -16.5l-14 180z" />
    <glyph glyph-name="w" unicode="w" horiz-adv-x="1179" 
d="M106 0l-36 500h203l38 -500h-205zM1159 500l-290 -443q-15 -23 -42.5 -40.5t-53.5 -16.5h-204l-16 221l-107 -164q-15 -23 -42.5 -40.5t-53.5 -16.5l-14 180l172 263q19 29 42.5 43t61.5 14h124l24 -318l171 261q19 29 42.5 43t61.5 14h124z" />
    <glyph glyph-name="x" unicode="x" horiz-adv-x="835" 
d="M132 500h203l-113 -500h-202l21 107q7 36 33 68.5t62.5 52.5t74.5 20q8 0 22 -2q-59 13 -94.5 42.5t-35.5 74.5q0 13 3 26zM815 500q-21 -96 -43 -153.5t-58.5 -90.5t-95.5 -33q46 0 74.5 -35.5t28.5 -85.5q0 -20 -4 -36l-14 -66h-203l15 63q5 20 5 34q0 24 -17 38
t-60 14h-150l38 170l172 1q32 0 48.5 13.5t27 41.5t26.5 94l8 31h202z" />
    <glyph glyph-name="y" unicode="y" horiz-adv-x="836" 
d="M75 0q-24 -1 -39.5 14t-15.5 36q0 5 2 13l22 87l70 290q8 35 29.5 47.5t56.5 12.5l130 -1l-77 -324h245l-26 -115q-8 -35 -30 -48t-56 -12h-311zM499 0l114 500h203l-112 -500h-205zM82 -34h616l-20 -87q-8 -34 -24.5 -52t-53.5 -18h-492q-27 0 -38 10t-11 29q0 16 4 31z
" />
    <glyph glyph-name="z" unicode="z" horiz-adv-x="785" 
d="M455 500l-169 -176h-207l27 116q8 34 40.5 47.5t70.5 12.5h238zM285 0h-265l482 500h263zM334 0l169 176h206l-25 -116q-7 -34 -40 -47.5t-72 -12.5h-238z" />
    <glyph glyph-name="braceleft" unicode="{" horiz-adv-x="479" 
d="M429 546q-40 0 -63 -15.5t-35.5 -46.5t-21.5 -87q-7 -41 -25 -63t-39.5 -31t-56.5 -16l-26 -6q41 0 71.5 -25t30.5 -88q0 -18 -5 -50q-8 -44 -8 -78q0 -71 45 -71q9 0 17 1.5t15 1.5l-22 -128q-119 -4 -165 36t-46 108q0 20 4 45t9 47q1 5 5.5 26t4.5 36q0 44 -31.5 62
t-66.5 18l18 95q28 -1 53 7t53.5 49.5t42.5 131.5q13 83 46 126.5t74 57t91 13.5l61 -1z" />
    <glyph glyph-name="bar" unicode="|" 
d="M20 -168l304 868h186l-303 -868h-187z" />
    <glyph glyph-name="braceright" unicode="}" horiz-adv-x="479" 
d="M50 0q40 0 63 15.5t35.5 46.5t21.5 87q7 41 25 63t39.5 31t56.5 16l26 6q-41 0 -71.5 25t-30.5 88q0 18 5 50q8 44 8 78q0 71 -45 71q-9 0 -17 -1.5t-15 -1.5l22 128q119 4 165 -36t46 -108q0 -20 -4 -45t-9 -47q-1 -5 -5.5 -26t-4.5 -36q0 -44 31.5 -62t66.5 -18
l-18 -95q-28 1 -53 -7t-53.5 -49.5t-42.5 -131.5q-13 -83 -46 -126.5t-74 -57t-91 -13.5l-61 1z" />
    <glyph glyph-name="uni00A0" unicode="&#xa0;" horiz-adv-x="300" 
 />
    <glyph glyph-name="brokenbar" unicode="&#xa6;" 
d="M510 700l-101 -289h-186l101 289h186zM20 -168l114 326h187l-114 -326h-187z" />
    <glyph glyph-name="paragraph" unicode="&#xb6;" horiz-adv-x="854" 
d="M549 700l-303 -868h-187l161 459q-28 1 -75 15.5t-86 52.5t-39 103q0 12 4 38q17 94 72 137.5t116 52.5t151 10h186zM344 -168l304 868h186l-303 -868h-187z" />
    <glyph glyph-name="onequarter" unicode="&#xbc;" horiz-adv-x="814" 
d="M267 411h-87l47 213h-59l7 30l71 53v1h87zM20 0l569 700h166l-568 -700h-167zM557 114l94 2l-12 -53l-181 -3l46 205q5 21 13 27t30 6h51zM642 1l66 297h86l-66 -297h-86z" />
    <glyph glyph-name="onehalf" unicode="&#xbd;" horiz-adv-x="775" 
d="M267 411h-87l47 213h-59l7 30l71 53v1h87zM20 0l569 700h166l-568 -700h-167zM747 262q0 -7 -1 -11l-24 -103l-7 -29q-3 -13 -11.5 -18t-22.5 -5h-163l-17 -89h-79l17 89l7 29q3 14 12 18.5t23 4.5h162l14 61h-119l-6 -26h-46q-11 0 -15 3t-4 9q0 5 1 9l1 5l16 68h243
q19 0 19 -15zM687 7h-169l14 66l171 -1z" />
    <glyph glyph-name="threequarters" unicode="&#xbe;" horiz-adv-x="814" 
d="M101 606q-18 0 -18 14q0 4 2 12v1l7 28l3 15l6 25h240q11 0 15 -4t4 -12q0 -7 -1 -11l-15 -64q-7 -30 -22 -38.5t-29 -9.5t-18 -1q18 0 31 -12.5t13 -36.5q0 -5 -2 -17l-8 -38q-5 -27 -31 -27h-52l13 65l11 46h-83l14 51h81l9 40l-118 1l-6 -27h-46zM20 0l569 700h166
l-568 -700h-167zM209 430h-172l5 25l9 40q3 12 10.5 21t21.5 9h46l-8 -30l101 1zM557 114l94 2l-12 -53l-181 -3l46 205q5 21 13 27t30 6h51zM642 1l66 297h86l-66 -297h-86z" />
    <glyph glyph-name="multiply" unicode="&#xd7;" horiz-adv-x="550" 
d="M346 500h184l-162 -196l162 -194h-185l-325 390h184l71 -85zM205 110h-185l138 165l93 -110z" />
    <glyph glyph-name="divide" unicode="&#xf7;" horiz-adv-x="538" 
d="M412 545l-32 -145h-166l33 145h165zM58 343l460 3l-29 -144l-469 -4zM334 145l-32 -145h-166l33 145h165z" />
    <glyph glyph-name="quoteleft" unicode="&#x2018;" horiz-adv-x="212" 
d="M192 700l-41 -264h-131l95 264h77z" />
    <glyph glyph-name="quoteright" unicode="&#x2019;" horiz-adv-x="212" 
d="M20 436l41 264h131l-95 -264h-77z" />
    <glyph glyph-name="quotesinglbase" unicode="&#x201a;" horiz-adv-x="217" 
d="M197 109l-110 -235h-67l53 235h124z" />
    <glyph glyph-name="quotedblleft" unicode="&#x201c;" horiz-adv-x="441" 
d="M192 700l-41 -264h-131l95 264h77zM421 700l-41 -264h-131l95 264h77z" />
    <glyph glyph-name="quotedblright" unicode="&#x201d;" horiz-adv-x="441" 
d="M20 436l41 264h131l-95 -264h-77zM249 436l41 264h131l-95 -264h-77z" />
    <glyph glyph-name="quotedblbase" unicode="&#x201e;" horiz-adv-x="217" 
d="M20 -126l53 235h124l-110 -235h-67z" />
    <glyph glyph-name="dagger" unicode="&#x2020;" horiz-adv-x="487" 
d="M354 600l113 -1l-47 -139l-115 1l-86 -245h-186l86 246l-99 1l47 139l101 -1l35 99h186z" />
    <glyph glyph-name="daggerdbl" unicode="&#x2021;" horiz-adv-x="553" 
d="M451 700l-30 -83l112 -1l-47 -139l-400 3l47 139l103 -1l29 82h186zM121 291l-101 1l47 139l400 -3l-47 -139l-113 1l-26 -74h-186z" />
    <glyph glyph-name="ellipsis" unicode="&#x2026;" horiz-adv-x="189" 
d="M20 0l25 109h124l-24 -109h-125z" />
    <glyph glyph-name="guilsinglleft" unicode="&#x2039;" horiz-adv-x="472" 
d="M20 247l234 253h198l-243 -253l163 -247h-199z" />
    <glyph glyph-name="guilsinglright" unicode="&#x203a;" horiz-adv-x="472" 
d="M452 253l-234 -253h-198l243 253l-163 247h199z" />
    <glyph glyph-name="Euro" unicode="&#x20ac;" horiz-adv-x="775" 
d="M755 627l-37 -175l-430 -1l-12 -51l99 -1l-26 -110h-329l29 114l46 -1l11 49l27 116q8 35 30 48t56 12h536zM60 251l613 1l-27 -116q-8 -35 -30 -48t-56 -12h-359h-57q-46 0 -67.5 2.5t-31.5 11.5t-10 28q0 14 9 57z" />
    <glyph glyph-name="emptyset" unicode="&#x2205;" horiz-adv-x="602" 
d="M530 445q52 -72 52 -163q0 -76 -38 -140.5t-102.5 -102.5t-140.5 -38q-38 0 -76 11l-16 -26h-167l277 451q-6 1 -18 1q-42 0 -78 -21t-57 -57t-21 -78q0 -24 8 -48l-76 -122q-27 36 -42 79.5t-15 90.5q0 76 38 140.5t102.5 102.5t140.5 38q43 0 87 -14l22 37h166
l-281 -460h6q42 0 78 21t57 57t21 78q0 18 -5 38z" />
    <glyph glyph-name="minus" unicode="&#x2212;" horiz-adv-x="538" 
d="M58 380l460 3l-29 -144l-469 -4z" />
    </font>
</defs>
</svg>
